<?xml version="1.0" encoding="UTF-8" standalone="no"?>
<!DOCTYPE svg PUBLIC "-//W3C//DTD SVG 1.1//EN" "http://www.w3.org/Graphics/SVG/1.1/DTD/svg11.dtd">
<svg width="100%" height="100%" viewBox="0 0 1294 358" version="1.1" xmlns="http://www.w3.org/2000/svg" xmlns:xlink="http://www.w3.org/1999/xlink" xml:space="preserve" xmlns:serif="http://www.serif.com/" style="fill-rule:evenodd;clip-rule:evenodd;stroke-linejoin:round;stroke-miterlimit:2;">
    <g transform="matrix(1,0,0,1,-353.433,-821.3)">
        <g transform="matrix(0.896377,0,0,0.896503,457.258,1020.72)">
            <path d="M0,32.438L14.174,10.47C21.024,0.313 33.937,-19.923 43.15,-27.01C45.669,-28.664 48.111,-28.821 50.395,-27.719C59.843,-22.758 73.386,-1.42 80.237,9.369L93.781,-13.703C82.441,-30.79 66.852,-52.679 46.772,-52.679C33.78,-52.679 22.047,-41.184 11.97,-28.191L0,-11.498L-0.079,-11.576L-14.251,10.47C-28.268,32.36 -42.441,54.013 -52.282,59.998L-52.282,59.918C-54.566,60.548 -57.008,60.548 -59.448,59.918C-65.511,56.612 -70.156,50.707 -73.543,44.17C-68.424,58.107 -61.732,72.044 -52.519,85.117C-34.094,81.729 -16.771,58.186 0,32.438M152.836,54.25C142.992,56.691 131.495,43.856 119.842,26.849L108.188,9.052L94.568,31.73L106.536,48.973L106.458,49.053C121.497,68.659 138.033,82.44 158.427,77.478C162.835,76.376 167.01,75.037 170.867,73.463C182.206,52.36 189.921,31.887 191.733,12.439C189.764,30.47 179.765,44.092 162.049,51.336L154.803,53.699C154.174,53.935 153.544,54.092 152.836,54.25" style="fill:rgb(150,216,216);"/>
        </g>
        <g transform="matrix(0.896377,0,0,0.896503,554.236,971.164)">
            <path d="M0,64.33C15.671,37.716 41.577,-10.788 58.661,-29.291C83.859,-56.536 83.781,61.497 83.781,61.497C83.859,63.622 83.781,65.59 83.545,67.717C81.732,87.165 74.018,107.638 62.679,128.741C73.386,124.016 107.167,108.031 107.639,62.677L107.718,61.338C106.459,-29.291 91.26,-60.788 69.293,-60.473C41.417,-60.079 10.316,-1.417 -14.407,41.575L-27.951,64.646C-33.778,74.409 -51.888,105.039 -61.417,105.039C-68.268,105.039 -88.66,74.095 -94.015,65.747L-108.188,87.716C-85.589,121.26 -61.889,149.922 -28.424,108.268L-13.62,87.008L0,64.33ZM-101.416,190.316C-111.338,185.748 -121.181,179.606 -130.786,171.968C-141.732,163.227 -151.888,152.678 -160.707,140.394C-169.921,127.322 -176.613,113.385 -181.731,99.448C-182.361,98.188 -182.992,96.851 -183.542,95.512C-184.408,92.913 -185.196,90.472 -185.826,88.268C-186.298,86.693 -186.691,85.119 -187.085,83.543C-191.573,62.834 -188.109,35.04 -173.778,20.945C-170.865,18.11 -167.558,15.983 -164.094,14.804C-154.33,16.614 -138.267,41.102 -122.439,65.747L-108.267,43.702C-126.377,15.983 -145.117,-9.292 -165.196,-9.292C-173.856,-8.661 -184.25,-2.205 -190.472,3.936C-197.4,10.866 -202.519,18.739 -205.983,27.716C-212.125,44.41 -214.487,62.913 -211.889,80.551L-205.668,104.567C-178.03,184.408 -106.771,231.495 -25.038,231.495C83.859,231.495 174.254,143.466 174.254,32.205C174.254,-77.874 85.039,-167.165 -25.038,-167.165C-131.022,-167.165 -217.715,-84.41 -224.016,19.999C-215.511,-1.891 -201.259,-9.921 -189.684,-28.426C-165.038,-95.433 -100.629,-143.15 -25.038,-143.15C71.813,-143.15 150.314,-64.646 150.314,32.205C150.314,83.937 127.875,130.472 92.128,162.599C74.332,178.663 53.229,191.102 29.924,198.739L30.316,198.425C-10.471,211.575 -59.92,210.55 -102.203,189.92C-101.967,190.077 -101.652,190.159 -101.416,190.316" style="fill:rgb(48,138,173);"/>
        </g>
        <g transform="matrix(0.896377,0,0,0.896503,502.431,1040.98)">
            <path d="M0,-13.463L0,-50.315C-2.284,-51.416 -4.725,-51.259 -7.244,-49.606L-7.244,-13.463C-14.881,-9.763 -12.205,1.97 -3.623,1.97C4.96,1.97 7.638,-9.763 0,-13.463M108.032,-51.259C99.45,-51.259 96.772,-39.526 104.408,-35.748L104.408,31.103L111.654,28.741L111.654,-35.748C119.29,-39.526 116.615,-51.259 108.032,-51.259M-102.677,37.323L-102.677,-18.817C-94.961,-22.598 -97.639,-34.252 -106.3,-34.252C-114.881,-34.252 -117.559,-22.598 -109.843,-18.817L-109.843,37.323C-107.402,37.953 -104.961,37.953 -102.677,37.323" style="fill:rgb(200,16,46);"/>
        </g>
        <g transform="matrix(1.33302,0,0,1.2425,1152.29,846.211)">
            <path d="M0,112.676C-7.401,112.676 -13.622,111.418 -18.661,108.819C-23.622,106.221 -27.953,102.596 -31.653,98.03L-21.181,88.425C-18.268,91.889 -15.039,94.646 -11.496,96.533C-7.952,98.503 -3.857,99.526 0.866,99.526C5.669,99.526 9.212,98.581 11.575,96.694C13.938,94.881 15.118,92.282 15.118,88.976C15.118,86.534 14.252,84.407 12.599,82.598C10.945,80.865 8.111,79.764 4.016,79.291L-3.149,78.345C-11.182,77.322 -17.48,75.038 -21.969,71.416C-26.535,67.717 -28.819,62.283 -28.819,55.116C-28.819,51.338 -28.11,47.952 -26.693,45.039C-25.354,42.047 -23.386,39.527 -20.787,37.479C-18.268,35.433 -15.196,33.858 -11.654,32.756C-8.109,31.731 -4.174,31.18 0.079,31.18C7.087,31.18 12.835,32.205 17.244,34.407C21.732,36.613 25.67,39.684 29.213,43.62L19.134,53.15C17.166,50.787 14.488,48.738 11.26,46.93C8.032,45.196 4.331,44.33 0.079,44.33C-4.41,44.33 -7.716,45.196 -9.842,47.008C-11.969,48.818 -13.071,51.18 -13.071,54.094C-13.071,57.086 -12.126,59.291 -10.236,60.785C-8.347,62.283 -5.276,63.385 -1.103,64.092L6.142,65.039C14.725,66.298 20.944,68.819 24.882,72.597C28.898,76.299 30.866,81.337 30.866,87.636C30.866,91.417 30.079,94.881 28.662,97.952C27.245,100.945 25.118,103.621 22.442,105.748C19.765,107.951 16.535,109.685 12.678,110.864C8.897,112.047 4.646,112.676 0,112.676M-64.488,98.03L-65.118,98.03C-65.827,99.922 -66.692,101.731 -67.874,103.543C-68.977,105.352 -70.473,106.928 -72.205,108.266C-73.937,109.606 -76.063,110.707 -78.503,111.494C-80.945,112.283 -83.78,112.676 -87.008,112.676C-95.039,112.676 -101.339,110.078 -105.748,104.88C-110.236,99.683 -112.44,92.282 -112.44,82.52L-112.44,32.913L-96.142,32.913L-96.142,80.472C-96.142,92.519 -91.103,98.581 -81.103,98.581C-79.056,98.581 -77.008,98.346 -74.961,97.795C-72.993,97.244 -71.181,96.376 -69.685,95.275C-68.11,94.173 -66.85,92.833 -65.906,91.103C-64.96,89.369 -64.488,87.4 -64.488,85.115L-64.488,32.913L-48.189,32.913L-48.189,110.864L-64.488,110.864L-64.488,98.03ZM-137.796,110.864C-143.385,110.864 -147.559,109.448 -150.314,106.614C-153.071,103.78 -154.41,99.764 -154.41,94.724L-154.41,0L-138.11,0L-138.11,97.559L-127.322,97.559L-127.322,110.864L-137.796,110.864ZM-212.598,100.237C-207.48,100.237 -203.307,99.132 -200,96.851C-196.693,94.646 -195.039,91.574 -195.039,87.793L-195.039,76.535L-208.819,76.535C-220.158,76.535 -225.748,80.078 -225.748,87.085L-225.748,89.763C-225.748,93.227 -224.566,95.905 -222.283,97.637C-219.921,99.368 -216.692,100.237 -212.598,100.237M-179.606,110.864C-183.937,110.864 -187.165,109.685 -189.528,107.243C-191.811,104.723 -193.228,101.653 -193.701,97.873L-194.409,97.873C-195.905,102.754 -198.661,106.456 -202.678,108.898C-206.692,111.418 -211.496,112.676 -217.245,112.676C-225.354,112.676 -231.574,110.55 -235.905,106.377C-240.236,102.203 -242.441,96.533 -242.441,89.447C-242.441,81.652 -239.606,75.824 -233.937,71.889C-228.268,68.031 -220.001,66.062 -209.134,66.062L-195.039,66.062L-195.039,59.448C-195.039,54.645 -196.377,50.945 -198.976,48.346C-201.496,45.746 -205.591,44.488 -211.102,44.488C-215.668,44.488 -219.449,45.511 -222.283,47.481C-225.197,49.447 -227.638,52.045 -229.685,55.116L-239.371,46.297C-236.771,41.889 -233.149,38.268 -228.503,35.433C-223.779,32.598 -217.638,31.18 -210,31.18C-199.921,31.18 -192.204,33.464 -186.771,38.19C-181.417,42.912 -178.739,49.607 -178.739,58.423L-178.739,97.559L-170.473,97.559L-170.473,110.864L-179.606,110.864ZM-269.842,110.864C-275.512,110.864 -279.842,109.369 -282.756,106.456C-285.59,103.543 -287.086,99.368 -287.086,93.938L-287.086,46.297L-299.212,46.297L-299.212,32.913L-292.599,32.913C-289.921,32.913 -288.032,32.363 -287.008,31.18C-285.983,29.921 -285.433,28.03 -285.433,25.274L-285.433,11.654L-270.709,11.654L-270.709,32.913L-254.41,32.913L-254.41,46.297L-270.709,46.297L-270.709,97.559L-255.591,97.559L-255.591,110.864L-269.842,110.864Z" style="fill:white;fill-rule:nonzero;"/>
        </g>
        <g transform="matrix(1.23219,0,0,1.23558,1603.88,1098.82)">
            <path d="M0,-24.333C-2.756,-24.333 -5.355,-23.779 -7.718,-22.835C-10.002,-21.812 -12.047,-20.394 -13.701,-18.582C-15.354,-16.851 -16.615,-14.645 -17.48,-12.126C-18.428,-9.685 -18.818,-6.931 -18.818,-3.938L-18.818,-2.835L17.402,-2.835L17.402,-4.411C17.402,-10.395 15.904,-15.196 12.755,-18.82C9.684,-22.521 5.434,-24.333 0,-24.333M0,44.487C-5.591,44.487 -10.553,43.544 -14.961,41.653C-19.371,39.763 -23.071,37.007 -26.221,33.464C-29.291,29.921 -31.654,25.667 -33.309,20.552C-34.961,15.511 -35.748,9.92 -35.748,3.7C-35.748,-2.441 -34.961,-8.11 -33.309,-13.151C-31.654,-18.188 -29.291,-22.521 -26.221,-26.063C-23.071,-29.606 -19.371,-32.283 -14.961,-34.175C-10.553,-36.062 -5.591,-37.009 0,-37.009C5.748,-37.009 10.788,-36.062 15.117,-34.017C19.447,-32.048 23.071,-29.292 25.984,-25.749C28.898,-22.206 31.021,-18.031 32.52,-13.387C33.936,-8.661 34.646,-3.621 34.646,1.81L34.646,7.954L-18.818,7.954L-18.818,10.471C-18.818,16.376 -17.087,21.259 -13.545,25.116C-10.002,28.898 -4.883,30.864 1.652,30.864C6.456,30.864 10.55,29.842 13.859,27.716C17.087,25.667 19.922,22.835 22.203,19.211L31.812,28.741C28.898,33.542 24.723,37.321 19.211,40.155C13.701,43.069 7.321,44.487 0,44.487M-75.984,44.487C-81.575,44.487 -86.537,43.544 -90.945,41.653C-95.354,39.763 -99.056,37.007 -102.048,33.464C-105.04,29.921 -107.324,25.667 -108.897,20.552C-110.553,15.511 -111.339,9.92 -111.339,3.7C-111.339,-2.441 -110.553,-8.11 -108.897,-13.151C-107.324,-18.188 -105.04,-22.521 -102.048,-26.063C-99.056,-29.606 -95.354,-32.283 -90.945,-34.175C-86.537,-36.062 -81.575,-37.009 -75.984,-37.009C-68.188,-37.009 -61.732,-35.275 -56.773,-31.812C-51.813,-28.269 -48.109,-23.622 -45.828,-17.874L-59.291,-11.575C-60.395,-15.196 -62.361,-18.031 -65.117,-20.158C-67.874,-22.363 -71.498,-23.386 -75.984,-23.386C-81.969,-23.386 -86.455,-21.495 -89.529,-17.795C-92.6,-14.095 -94.095,-9.212 -94.095,-3.228L-94.095,10.628C-94.095,16.694 -92.6,21.495 -89.529,25.274C-86.455,28.977 -81.969,30.864 -75.984,30.864C-71.181,30.864 -67.323,29.685 -64.488,27.322C-61.654,24.959 -59.369,21.889 -57.639,17.952L-45.195,24.565C-47.795,30.943 -51.733,35.905 -56.931,39.369C-62.126,42.755 -68.428,44.487 -75.984,44.487M-192.993,42.676L-192.993,-35.275L-176.692,-35.275L-176.692,-22.363L-175.906,-22.363C-174.251,-26.535 -171.655,-30.078 -168.188,-32.834C-164.725,-35.669 -160.078,-37.009 -154.018,-37.009C-146.064,-37.009 -139.844,-34.41 -135.354,-29.213C-130.946,-23.937 -128.74,-16.458 -128.74,-6.771L-128.74,42.676L-145.039,42.676L-145.039,-4.646C-145.039,-16.851 -149.922,-22.993 -159.763,-22.993C-161.811,-22.993 -163.937,-22.678 -165.986,-22.127C-168.031,-21.577 -169.844,-20.787 -171.416,-19.686C-172.992,-18.582 -174.33,-17.166 -175.276,-15.435C-176.221,-13.78 -176.692,-11.732 -176.692,-9.448L-176.692,42.676L-192.993,42.676ZM-245.749,-24.333C-248.584,-24.333 -251.18,-23.779 -253.464,-22.835C-255.827,-21.812 -257.875,-20.394 -259.527,-18.582C-261.104,-16.851 -262.44,-14.645 -263.309,-12.126C-264.174,-9.685 -264.646,-6.931 -264.646,-3.938L-264.646,-2.835L-228.426,-2.835L-228.426,-4.411C-228.426,-10.395 -229.921,-15.196 -233.07,-18.82C-236.141,-22.521 -240.395,-24.333 -245.749,-24.333M-245.749,44.487C-251.34,44.487 -256.377,43.544 -260.788,41.653C-265.196,39.763 -268.899,37.007 -271.97,33.464C-275.119,29.921 -277.482,25.667 -279.134,20.552C-280.789,15.511 -281.575,9.92 -281.575,3.7C-281.575,-2.441 -280.789,-8.11 -279.134,-13.151C-277.482,-18.188 -275.119,-22.521 -271.97,-26.063C-268.899,-29.606 -265.196,-32.283 -260.788,-34.175C-256.377,-36.062 -251.34,-37.009 -245.749,-37.009C-240.08,-37.009 -235.039,-36.062 -230.71,-34.017C-226.378,-32.048 -222.757,-29.292 -219.844,-25.749C-216.93,-22.206 -214.803,-18.031 -213.309,-13.387C-211.89,-8.661 -211.182,-3.621 -211.182,1.81L-211.182,7.954L-264.646,7.954L-264.646,10.471C-264.646,16.376 -262.915,21.259 -259.369,25.116C-255.827,28.898 -250.708,30.864 -244.095,30.864C-239.293,30.864 -235.275,29.842 -231.969,27.716C-228.662,25.667 -225.906,22.835 -223.622,19.211L-214.017,28.741C-216.93,33.542 -221.102,37.321 -226.614,40.155C-232.048,43.069 -238.504,44.487 -245.749,44.487M-316.064,-35.275L-299.763,-35.275L-299.763,42.676L-316.064,42.676L-316.064,-35.275ZM-307.796,-49.214C-311.26,-49.214 -313.701,-50 -315.275,-51.576C-316.772,-53.149 -317.559,-55.197 -317.559,-57.718L-317.559,-60.316C-317.559,-62.758 -316.772,-64.803 -315.275,-66.458C-313.701,-68.031 -311.26,-68.82 -307.796,-68.82C-304.411,-68.82 -301.97,-68.031 -300.472,-66.458C-298.978,-64.803 -298.267,-62.758 -298.267,-60.316L-298.267,-57.718C-298.267,-55.197 -298.978,-53.149 -300.472,-51.576C-301.97,-50 -304.411,-49.214 -307.796,-49.214M-362.361,44.487C-367.952,44.487 -372.992,43.544 -377.4,41.653C-381.812,39.763 -385.433,37.007 -388.504,33.464C-391.496,29.921 -393.779,25.667 -395.354,20.552C-396.93,15.511 -397.795,9.92 -397.795,3.7C-397.795,-2.441 -396.93,-8.11 -395.354,-13.151C-393.779,-18.188 -391.496,-22.521 -388.504,-26.063C-385.433,-29.606 -381.812,-32.283 -377.4,-34.175C-372.992,-36.062 -367.952,-37.009 -362.361,-37.009C-354.568,-37.009 -348.19,-35.275 -343.229,-31.812C-338.189,-28.269 -334.567,-23.622 -332.283,-17.874L-345.749,-11.575C-346.851,-15.196 -348.741,-18.031 -351.497,-20.158C-354.254,-22.363 -357.875,-23.386 -362.361,-23.386C-368.346,-23.386 -372.914,-21.495 -375.984,-17.795C-378.977,-14.095 -380.553,-9.212 -380.553,-3.228L-380.553,10.628C-380.553,16.694 -378.977,21.495 -375.984,25.274C-372.914,28.977 -368.346,30.864 -362.361,30.864C-357.561,30.864 -353.779,29.685 -350.947,27.322C-348.109,24.959 -345.828,21.889 -344.095,17.952L-331.654,24.565C-334.253,30.943 -338.189,35.905 -343.387,39.369C-348.584,42.755 -354.883,44.487 -362.361,44.487M-441.811,44.487C-449.213,44.487 -455.434,43.23 -460.395,40.63C-465.433,38.032 -469.765,34.407 -473.465,29.842L-462.994,20.236C-460.08,23.7 -456.85,26.457 -453.307,28.345C-449.764,30.314 -445.592,31.337 -440.945,31.337C-436.141,31.337 -432.52,30.393 -430.235,28.505C-427.875,26.692 -426.692,24.094 -426.692,20.787C-426.692,18.346 -427.482,16.219 -429.134,14.409C-430.789,12.677 -433.702,11.575 -437.796,11.103L-444.96,10.156C-452.992,9.134 -459.212,6.85 -463.78,3.228C-468.346,-0.472 -470.63,-5.905 -470.63,-13.072C-470.63,-16.851 -469.922,-20.236 -468.503,-23.149C-467.087,-26.142 -465.117,-28.662 -462.598,-30.71C-460.002,-32.756 -457.007,-34.331 -453.464,-35.433C-449.922,-36.458 -445.985,-37.009 -441.653,-37.009C-434.646,-37.009 -428.977,-35.983 -424.487,-33.781C-420.079,-31.575 -416.064,-28.505 -412.598,-24.568L-422.678,-15.039C-424.645,-17.401 -427.243,-19.45 -430.472,-21.259C-433.781,-22.993 -437.48,-23.858 -441.653,-23.858C-446.143,-23.858 -449.528,-22.993 -451.654,-21.181C-453.779,-19.371 -454.883,-17.009 -454.883,-14.095C-454.883,-11.103 -453.936,-8.897 -452.048,-7.403C-450.157,-5.905 -447.087,-4.804 -442.914,-4.097L-435.669,-3.149C-427.086,-1.891 -420.787,0.63 -416.852,4.408C-412.915,8.11 -410.945,13.148 -410.945,19.447C-410.945,23.229 -411.653,26.692 -413.151,29.764C-414.567,32.756 -416.615,35.433 -419.371,37.56C-422.049,39.763 -425.276,41.496 -429.056,42.676C-432.913,43.858 -437.166,44.487 -441.811,44.487M-520.551,30.864C-514.882,30.864 -510.394,29.134 -507.008,25.667C-503.623,22.282 -501.97,17.166 -501.97,10.313L-501.97,-2.835C-501.97,-9.685 -503.623,-14.803 -507.008,-18.267C-510.394,-21.655 -514.882,-23.386 -520.551,-23.386C-526.142,-23.386 -530.63,-21.655 -534.016,-18.267C-537.402,-14.803 -539.135,-9.685 -539.135,-2.835L-539.135,10.313C-539.135,17.166 -537.402,22.282 -534.016,25.667C-530.63,29.134 -526.142,30.864 -520.551,30.864M-520.551,44.487C-525.906,44.487 -530.866,43.544 -535.275,41.653C-539.764,39.763 -543.465,37.007 -546.614,33.464C-549.686,29.921 -552.127,25.667 -553.78,20.552C-555.512,15.511 -556.299,9.92 -556.299,3.7C-556.299,-2.441 -555.512,-8.11 -553.78,-13.151C-552.127,-18.188 -549.686,-22.521 -546.614,-26.063C-543.465,-29.606 -539.764,-32.283 -535.275,-34.175C-530.866,-36.062 -525.906,-37.009 -520.551,-37.009C-515.118,-37.009 -510.236,-36.062 -505.748,-34.175C-501.339,-32.283 -497.56,-29.606 -494.409,-26.063C-491.338,-22.521 -488.976,-18.188 -487.245,-13.151C-485.512,-8.11 -484.725,-2.441 -484.725,3.7C-484.725,9.92 -485.512,15.511 -487.245,20.552C-488.976,25.667 -491.338,29.921 -494.409,33.464C-497.56,37.007 -501.339,39.763 -505.748,41.653C-510.236,43.544 -515.118,44.487 -520.551,44.487M-590.788,-35.275L-574.489,-35.275L-574.489,42.676L-590.788,42.676L-590.788,-35.275ZM-582.598,-49.214C-585.985,-49.214 -588.425,-50 -590.001,-51.576C-591.574,-53.149 -592.284,-55.197 -592.284,-57.718L-592.284,-60.316C-592.284,-62.758 -591.574,-64.803 -590.001,-66.458C-588.425,-68.031 -585.985,-68.82 -582.598,-68.82C-579.134,-68.82 -576.692,-68.031 -575.197,-66.458C-573.701,-64.803 -572.993,-62.758 -572.993,-60.316L-572.993,-57.718C-572.993,-55.197 -573.701,-53.149 -575.197,-51.576C-576.692,-50 -579.134,-49.214 -582.598,-49.214M-645.512,30.393C-639.843,30.393 -635.275,28.581 -631.89,24.959C-628.505,21.259 -626.771,16.455 -626.771,10.471L-626.771,-2.992C-626.771,-9.055 -628.505,-13.859 -631.89,-17.48C-635.275,-21.102 -639.843,-22.993 -645.512,-22.993C-650.552,-22.993 -654.726,-21.733 -658.111,-19.292C-661.496,-16.851 -663.229,-13.623 -663.229,-9.608L-663.229,17.087C-663.229,21.023 -661.496,24.251 -658.111,26.692C-654.726,29.213 -650.552,30.393 -645.512,30.393M-679.527,-68.188L-663.229,-68.188L-663.229,-22.363L-662.441,-22.363C-660.788,-27.086 -657.954,-30.71 -654.174,-33.23C-650.314,-35.747 -645.748,-37.009 -640.552,-37.009C-630.709,-37.009 -623.071,-33.466 -617.638,-26.3C-612.284,-19.214 -609.528,-9.134 -609.528,3.7C-609.528,16.612 -612.284,26.614 -617.638,33.778C-623.071,40.945 -630.709,44.487 -640.552,44.487C-645.748,44.487 -650.314,43.23 -654.174,40.63C-657.954,38.032 -660.788,34.407 -662.441,29.842L-663.229,29.842L-663.229,42.676L-679.527,42.676L-679.527,-68.188Z" style="fill:rgb(48,138,173);fill-rule:nonzero;"/>
        </g>
    </g>
</svg>
